{
  "accessors": [
    {
      "bufferView": 2,
      "componentType": 5126,
      "count": 570,
      "max": [
        100.1333999633789,
        218.8791961669922,
        132.39920043945313
      ],
      "min": [
        -100.1333999633789,
        -231.3876953125,
        1.2549896240234375
      ],
      "type": "VEC3"
    },
    {
      "bufferView": 2,
      "byteOffset": 6840,
      "componentType": 5126,
      "count": 570,
      "max": [
        1.0,
        0.9964380860328674,
        0.9997287392616272
      ],
      "min": [
        -1.0,
        -0.9944096207618713,
        -0.99992835521698
      ],
      "type": "VEC3"
    },
    {
      "bufferView": 3,
      "componentType": 5126,
      "count": 570,
      "max": [
        0.9999933242797852,
        0.9998716115951538,
        0.9992176294326782,
        1.0
      ],
      "min": [
        -1.0,
        -0.9706370234489441,
        -0.9975647330284119,
        -1.0
      ],
      "type": "VEC4"
    },
    {
      "bufferView": 1,
      "componentType": 5126,
      "count": 570,
      "max": [
        0.9952320456504822,
        0.9908521771430969
      ],
      "min": [
        0.005804206244647503,
        0.009694261476397514
      ],
      "type": "VEC2"
    },
    {
      "bufferView": 1,
      "byteOffset": 4560,
      "componentType": 5126,
      "count": 570,
      "max": [
        0.9952320456504822,
        0.9908521771430969
      ],
      "min": [
        0.005804206244647503,
        0.009694261476397514
      ],
      "type": "VEC2"
    },
    {
      "bufferView": 1,
      "byteOffset": 9120,
      "componentType": 5126,
      "count": 570,
      "max": [
        0.9952320456504822,
        0.9908521771430969
      ],
      "min": [
        0.005804206244647503,
        0.009694261476397514
      ],
      "type": "VEC2"
    },
    {
      "bufferView": 0,
      "componentType": 5125,
      "count": 1938,
      "type": "SCALAR"
    }
  ],
  "asset": {
    "extras": {
      "author": "alex999m (https://sketchfab.com/alex999m)",
      "license": "CC-BY-4.0 (http://creativecommons.org/licenses/by/4.0/)",
      "source": "https://sketchfab.com/3d-models/car-low-poly-4140879ee00340a9bfc43407688de861",
      "title": "Car Low-Poly"
    },
    "generator": "Sketchfab-12.68.0",
    "version": "2.0"
  },
  "bufferViews": [
    {
      "buffer": 0,
      "byteLength": 7752,
      "name": "floatBufferViews",
      "target": 34963
    },
    {
      "buffer": 0,
      "byteLength": 13680,
      "byteOffset": 7752,
      "byteStride": 8,
      "name": "floatBufferViews",
      "target": 34962
    },
    {
      "buffer": 0,
      "byteLength": 13680,
      "byteOffset": 21432,
      "byteStride": 12,
      "name": "floatBufferViews",
      "target": 34962
    },
    {
      "buffer": 0,
      "byteLength": 9120,
      "byteOffset": 35112,
      "byteStride": 16,
      "name": "floatBufferViews",
      "target": 34962
    }
  ],
  "buffers": [
    {
      "byteLength": 44232,
      "uri": "scene.bin"
    }
  ],
  "extensionsUsed": [
    "KHR_materials_clearcoat"
  ],
  "images": [
    {
      "uri": "textures/Material_169_baseColor.jpeg"
    },
    {
      "uri": "textures/Material_169_metallicRoughness.png"
    },
    {
      "uri": "textures/Material_169_normal.jpeg"
    },
    {
      "uri": "textures/Material_169_clearcoat.png"
    }
  ],
  "materials": [
    {
      "extensions": {
        "KHR_materials_clearcoat": {
          "clearcoatFactor": 1.0,
          "clearcoatRoughnessFactor": 0.0383003049,
          "clearcoatTexture": {
            "index": 3
          }
        }
      },
      "name": "Material_169",
      "normalTexture": {
        "index": 2
      },
      "occlusionTexture": {
        "index": 1
      },
      "pbrMetallicRoughness": {
        "baseColorTexture": {
          "index": 0
        },
        "metallicRoughnessTexture": {
          "index": 1
        }
      }
    }
  ],
  "meshes": [
    {
      "name": "Sports_Car_Fin_Material #169_0",
      "primitives": [
        {
          "attributes": {
            "NORMAL": 1,
            "POSITION": 0,
            "TANGENT": 2,
            "TEXCOORD_0": 3,
            "TEXCOORD_1": 4,
            "TEXCOORD_2": 5
          },
          "indices": 6,
          "material": 0,
          "mode": 4
        }
      ]
    }
  ],
  "nodes": [
    {
      "children": [
        1
      ],
      "matrix": [
        1.0,
        0.0,
        0.0,
        0.0,
        0.0,
        2.220446049250313e-16,
        -1.0,
        0.0,
        0.0,
        1.0,
        2.220446049250313e-16,
        0.0,
        0.0,
        0.0,
        0.0,
        1.0
      ],
      "name": "Sketchfab_model"
    },
    {
      "children": [
        2
      ],
      "matrix": [
        1.0,
        0.0,
        0.0,
        0.0,
        0.0,
        0.0,
        1.0,
        0.0,
        0.0,
        -1.0,
        0.0,
        0.0,
        0.0,
        0.0,
        0.0,
        1.0
      ],
      "name": "Sports_Car_Fin.FBX"
    },
    {
      "children": [
        3
      ],
      "name": "RootNode"
    },
    {
      "children": [
        4
      ],
      "matrix": [
        1.0,
        0.0,
        0.0,
        0.0,
        0.0,
        2.220446049250313e-16,
        -1.0,
        0.0,
        0.0,
        1.0,
        2.220446049250313e-16,
        0.0,
        0.0,
        0.0,
        0.0,
        1.0
      ],
      "name": "Sports_Car_Fin"
    },
    {
      "mesh": 0,
      "name": "Sports_Car_Fin_Material #169_0"
    }
  ],
  "samplers": [
    {
      "magFilter": 9729,
      "minFilter": 9987,
      "wrapS": 10497,
      "wrapT": 10497
    },
    {
      "magFilter": 9729,
      "minFilter": 9729,
      "wrapS": 10497,
      "wrapT": 10497
    }
  ],
  "scene": 0,
  "scenes": [
    {
      "name": "Sketchfab_Scene",
      "nodes": [
        0
      ]
    }
  ],
  "textures": [
    {
      "sampler": 0,
      "source": 0
    },
    {
      "sampler": 0,
      "source": 1
    },
    {
      "sampler": 1,
      "source": 2
    },
    {
      "sampler": 0,
      "source": 3
    }
  ]
}
