{
  "accessors": [
    {
      "bufferView": 2,
      "componentType": 5126,
      "count": 20,
      "max": [
        -1.0337140560150146,
        -0.25853800773620605,
        -0.715162992477417
      ],
      "min": [
        -2.237318992614746,
        -0.6242409944534302,
        -0.8538860082626343
      ],
      "type": "VEC3"
    },
    {
      "bufferView": 2,
      "byteOffset": 240,
      "componentType": 5126,
      "count": 20,
      "max": [
        0.1416051834821701,
        -0.4165152311325073,
        0.8980328440666199
      ],
      "min": [
        -0.1416051834821701,
        -0.4165152311325073,
        0.8980328440666199
      ],
      "type": "VEC3"
    },
    {
      "bufferView": 1,
      "componentType": 5126,
      "count": 20,
      "max": [
        1.0,
        1.0
      ],
      "min": [
        1.0,
        1.0
      ],
      "type": "VEC2"
    },
    {
      "bufferView": 0,
      "componentType": 5125,
      "count": 48,
      "type": "SCALAR"
    },
    {
      "bufferView": 2,
      "byteOffset": 480,
      "componentType": 5126,
      "count": 1263,
      "max": [
        -0.8157740235328674,
        2.4280200004577637,
        -0.45461800694465637
      ],
      "min": [
        -2.455259084701538,
        -0.7511680126190186,
        -1.1319769620895386
      ],
      "type": "VEC3"
    },
    {
      "bufferView": 2,
      "byteOffset": 15636,
      "componentType": 5126,
      "count": 1263,
      "max": [
        1.0,
        1.0,
        0.9984529614448547
      ],
      "min": [
        -1.0,
        -1.0,
        -0.999990701675415
      ],
      "type": "VEC3"
    },
    {
      "bufferView": 1,
      "byteOffset": 160,
      "componentType": 5126,
      "count": 1263,
      "max": [
        1.0,
        1.0
      ],
      "min": [
        0.0,
        0.0
      ],
      "type": "VEC2"
    },
    {
      "bufferView": 0,
      "byteOffset": 192,
      "componentType": 5125,
      "count": 3738,
      "type": "SCALAR"
    },
    {
      "bufferView": 2,
      "byteOffset": 30792,
      "componentType": 5126,
      "count": 880,
      "max": [
        -0.9165440201759338,
        2.032133102416992,
        -0.7480959892272949
      ],
      "min": [
        -2.3544890880584717,
        -0.26420098543167114,
        -1.2063109874725342
      ],
      "type": "VEC3"
    },
    {
      "bufferView": 2,
      "byteOffset": 41352,
      "componentType": 5126,
      "count": 880,
      "max": [
        0.9985731244087219,
        0.9941689372062683,
        0.9947428107261658
      ],
      "min": [
        -0.9985731244087219,
        -0.9942234754562378,
        -0.9945873022079468
      ],
      "type": "VEC3"
    },
    {
      "bufferView": 1,
      "byteOffset": 10264,
      "componentType": 5126,
      "count": 880,
      "max": [
        0.0,
        0.0
      ],
      "min": [
        0.0,
        0.0
      ],
      "type": "VEC2"
    },
    {
      "bufferView": 0,
      "byteOffset": 15144,
      "componentType": 5125,
      "count": 4320,
      "type": "SCALAR"
    },
    {
      "bufferView": 2,
      "byteOffset": 51912,
      "componentType": 5126,
      "count": 92,
      "max": [
        -0.8277680277824402,
        1.1984119415283203,
        -0.4738349914550781
      ],
      "min": [
        -2.443264961242676,
        -0.0993179976940155,
        -0.696120023727417
      ],
      "type": "VEC3"
    },
    {
      "bufferView": 2,
      "byteOffset": 53016,
      "componentType": 5126,
      "count": 92,
      "max": [
        0.7392880916595459,
        0.9901319146156311,
        0.9669942259788513
      ],
      "min": [
        -0.7392880916595459,
        -0.2547984719276428,
        -0.008100260980427265
      ],
      "type": "VEC3"
    },
    {
      "bufferView": 1,
      "byteOffset": 17304,
      "componentType": 5126,
      "count": 92,
      "max": [
        0.8644970059394836,
        0.0
      ],
      "min": [
        0.0,
        0.0
      ],
      "type": "VEC2"
    },
    {
      "bufferView": 0,
      "byteOffset": 32424,
      "componentType": 5125,
      "count": 234,
      "type": "SCALAR"
    },
    {
      "bufferView": 2,
      "byteOffset": 54120,
      "componentType": 5126,
      "count": 2310,
      "max": [
        -0.8992400169372559,
        2.4280200004577637,
        -0.4350050091743469
      ],
      "min": [
        -2.371793031692505,
        -0.7527740001678467,
        -1.1319769620895386
      ],
      "type": "VEC3"
    },
    {
      "bufferView": 2,
      "byteOffset": 81840,
      "componentType": 5126,
      "count": 2310,
      "max": [
        1.0,
        0.999992847442627,
        1.0
      ],
      "min": [
        -1.0,
        -1.0,
        -0.9999982118606567
      ],
      "type": "VEC3"
    },
    {
      "bufferView": 1,
      "byteOffset": 18040,
      "componentType": 5126,
      "count": 2310,
      "max": [
        1.0,
        1.0
      ],
      "min": [
        0.0,
        0.0
      ],
      "type": "VEC2"
    },
    {
      "bufferView": 0,
      "byteOffset": 33360,
      "componentType": 5125,
      "count": 8100,
      "type": "SCALAR"
    },
    {
      "bufferView": 2,
      "byteOffset": 109560,
      "componentType": 5126,
      "count": 92,
      "max": [
        -1.0089219808578491,
        2.3479180335998535,
        -0.6035990118980408
      ],
      "min": [
        -2.262110948562622,
        2.236407995223999,
        -0.7403879761695862
      ],
      "type": "VEC3"
    },
    {
      "bufferView": 2,
      "byteOffset": 110664,
      "componentType": 5126,
      "count": 92,
      "max": [
        0.4933975338935852,
        0.9600253701210022,
        0.8006650805473328
      ],
      "min": [
        -0.4933975338935852,
        0.5049779415130615,
        -0.7735691666603088
      ],
      "type": "VEC3"
    },
    {
      "bufferView": 1,
      "byteOffset": 36520,
      "componentType": 5126,
      "count": 92,
      "max": [
        0.5,
        0.5
      ],
      "min": [
        0.0,
        0.0
      ],
      "type": "VEC2"
    },
    {
      "bufferView": 0,
      "byteOffset": 65760,
      "componentType": 5125,
      "count": 282,
      "type": "SCALAR"
    },
    {
      "bufferView": 2,
      "byteOffset": 111768,
      "componentType": 5126,
      "count": 3080,
      "max": [
        -0.9165440201759338,
        2.423027992248535,
        -0.7964709997177124
      ],
      "min": [
        -2.3544890880584717,
        -0.2159159928560257,
        -1.1573460102081299
      ],
      "type": "VEC3"
    },
    {
      "bufferView": 2,
      "byteOffset": 148728,
      "componentType": 5126,
      "count": 3080,
      "max": [
        0.9999547004699707,
        0.9999256134033203,
        0.999896764755249
      ],
      "min": [
        -0.9999547004699707,
        -0.9998801946640015,
        -0.999828040599823
      ],
      "type": "VEC3"
    },
    {
      "bufferView": 1,
      "byteOffset": 37256,
      "componentType": 5126,
      "count": 3080,
      "max": [
        1.0,
        1.0
      ],
      "min": [
        0.0,
        0.0
      ],
      "type": "VEC2"
    },
    {
      "bufferView": 0,
      "byteOffset": 66888,
      "componentType": 5125,
      "count": 8760,
      "type": "SCALAR"
    }
  ],
  "asset": {
    "extras": {
      "author": "JUFF (https://sketchfab.com/Juff22)",
      "license": "CC-BY-4.0 (http://creativecommons.org/licenses/by/4.0/)",
      "source": "https://sketchfab.com/3d-models/low-poly-sports-car-23dfdeb55dc24970b36065afaab7a8a5",
      "title": "Low-poly sports car"
    },
    "generator": "Sketchfab-12.67.0",
    "version": "2.0"
  },
  "bufferViews": [
    {
      "buffer": 0,
      "byteLength": 101928,
      "name": "floatBufferViews",
      "target": 34963
    },
    {
      "buffer": 0,
      "byteLength": 61896,
      "byteOffset": 101928,
      "byteStride": 8,
      "name": "floatBufferViews",
      "target": 34962
    },
    {
      "buffer": 0,
      "byteLength": 185688,
      "byteOffset": 163824,
      "byteStride": 12,
      "name": "floatBufferViews",
      "target": 34962
    }
  ],
  "buffers": [
    {
      "byteLength": 349512,
      "uri": "scene.bin"
    }
  ],
  "extensionsUsed": [
    "KHR_materials_clearcoat"
  ],
  "materials": [
    {
      "doubleSided": true,
      "extensions": {
        "KHR_materials_clearcoat": {
          "clearcoatFactor": 0.27531784105211315,
          "clearcoatRoughnessFactor": 0.04
        }
      },
      "name": "Material.001",
      "pbrMetallicRoughness": {
        "baseColorFactor": [
          1.0,
          0.5122415946564827,
          0.0,
          1.0
        ],
        "roughnessFactor": 0.8225334257519654
      }
    },
    {
      "doubleSided": true,
      "name": "Material.002",
      "pbrMetallicRoughness": {
        "baseColorFactor": [
          0.0,
          0.0,
          0.0,
          1.0
        ],
        "metallicFactor": 0.0,
        "roughnessFactor": 0.536765287075376
      }
    },
    {
      "doubleSided": true,
      "name": "Material.003",
      "pbrMetallicRoughness": {
        "roughnessFactor": 0.43340234329873717
      }
    },
    {
      "doubleSided": true,
      "name": "Material.004",
      "pbrMetallicRoughness": {
        "baseColorFactor": [
          0.0,
          0.0,
          0.0,
          1.0
        ],
        "metallicFactor": 0.0,
        "roughnessFactor": 0.6
      }
    },
    {
      "doubleSided": true,
      "name": "Material.005",
      "pbrMetallicRoughness": {
        "metallicFactor": 0.0,
        "roughnessFactor": 0.6
      }
    },
    {
      "doubleSided": true,
      "emissiveFactor": [
        1.0,
        0.0,
        0.0
      ],
      "name": "Material.006",
      "pbrMetallicRoughness": {
        "baseColorFactor": [
          1.0,
          0.0,
          0.0,
          1.0
        ],
        "metallicFactor": 0.0,
        "roughnessFactor": 0.6
      }
    },
    {
      "doubleSided": true,
      "name": "Material.007",
      "pbrMetallicRoughness": {
        "baseColorFactor": [
          0.0,
          0.0,
          0.0,
          1.0
        ],
        "metallicFactor": 0.0,
        "roughnessFactor": 0.0
      }
    }
  ],
  "meshes": [
    {
      "name": "Object_0",
      "primitives": [
        {
          "attributes": {
            "NORMAL": 1,
            "POSITION": 0,
            "TEXCOORD_0": 2
          },
          "indices": 3,
          "material": 4,
          "mode": 4
        }
      ]
    },
    {
      "name": "Object_1",
      "primitives": [
        {
          "attributes": {
            "NORMAL": 5,
            "POSITION": 4,
            "TEXCOORD_0": 6
          },
          "indices": 7,
          "material": 1,
          "mode": 4
        }
      ]
    },
    {
      "name": "Object_2",
      "primitives": [
        {
          "attributes": {
            "NORMAL": 9,
            "POSITION": 8,
            "TEXCOORD_0": 10
          },
          "indices": 11,
          "material": 3,
          "mode": 4
        }
      ]
    },
    {
      "name": "Object_3",
      "primitives": [
        {
          "attributes": {
            "NORMAL": 13,
            "POSITION": 12,
            "TEXCOORD_0": 14
          },
          "indices": 15,
          "material": 6,
          "mode": 4
        }
      ]
    },
    {
      "name": "Object_4",
      "primitives": [
        {
          "attributes": {
            "NORMAL": 17,
            "POSITION": 16,
            "TEXCOORD_0": 18
          },
          "indices": 19,
          "material": 0,
          "mode": 4
        }
      ]
    },
    {
      "name": "Object_5",
      "primitives": [
        {
          "attributes": {
            "NORMAL": 21,
            "POSITION": 20,
            "TEXCOORD_0": 22
          },
          "indices": 23,
          "material": 5,
          "mode": 4
        }
      ]
    },
    {
      "name": "Object_6",
      "primitives": [
        {
          "attributes": {
            "NORMAL": 25,
            "POSITION": 24,
            "TEXCOORD_0": 26
          },
          "indices": 27,
          "material": 2,
          "mode": 4
        }
      ]
    }
  ],
  "nodes": [
    {
      "children": [
        1
      ],
      "matrix": [
        1.0,
        0.0,
        0.0,
        0.0,
        0.0,
        2.220446049250313e-16,
        -1.0,
        0.0,
        0.0,
        1.0,
        2.220446049250313e-16,
        0.0,
        0.0,
        0.0,
        0.0,
        1.0
      ],
      "name": "Sketchfab_model"
    },
    {
      "children": [
        2,
        3,
        4,
        5,
        6,
        7,
        8
      ],
      "name": "MURCIELAGO.obj.cleaner.materialmerger.gles"
    },
    {
      "mesh": 0,
      "name": "Object_2"
    },
    {
      "mesh": 1,
      "name": "Object_3"
    },
    {
      "mesh": 2,
      "name": "Object_4"
    },
    {
      "mesh": 3,
      "name": "Object_5"
    },
    {
      "mesh": 4,
      "name": "Object_6"
    },
    {
      "mesh": 5,
      "name": "Object_7"
    },
    {
      "mesh": 6,
      "name": "Object_8"
    }
  ],
  "scene": 0,
  "scenes": [
    {
      "name": "Sketchfab_Scene",
      "nodes": [
        0
      ]
    }
  ]
}
