{
  "accessors": [
    {
      "bufferView": 2,
      "componentType": 5126,
      "count": 1274,
      "max": [
        1.392966866493225,
        1.9637501239776611,
        2.307255506515503
      ],
      "min": [
        -1.392966866493225,
        -1.0001946687698364,
        -2.102393865585327
      ],
      "type": "VEC3"
    },
    {
      "bufferView": 2,
      "byteOffset": 15288,
      "componentType": 5126,
      "count": 1274,
      "max": [
        1.0,
        1.0,
        0.9999855160713196
      ],
      "min": [
        -1.0,
        -1.0,
        -0.9981193542480469
      ],
      "type": "VEC3"
    },
    {
      "bufferView": 1,
      "componentType": 5126,
      "count": 1274,
      "max": [
        0.75,
        0.875
      ],
      "min": [
        0.0,
        0.0
      ],
      "type": "VEC2"
    },
    {
      "bufferView": 0,
      "componentType": 5125,
      "count": 2010,
      "type": "SCALAR"
    },
    {
      "bufferView": 2,
      "byteOffset": 30576,
      "componentType": 5126,
      "count": 896,
      "max": [
        1.3564428091049194,
        0.7821065187454224,
        2.3057050704956055
      ],
      "min": [
        -1.3564428091049194,
        -1.5105478763580322,
        -1.6631101369857788
      ],
      "type": "VEC3"
    },
    {
      "bufferView": 2,
      "byteOffset": 41328,
      "componentType": 5126,
      "count": 896,
      "max": [
        0.9919698238372803,
        0.9012782573699951,
        0.9966457486152649
      ],
      "min": [
        -0.9919698238372803,
        -0.9899694323539734,
        -0.9996095299720764
      ],
      "type": "VEC3"
    },
    {
      "bufferView": 1,
      "byteOffset": 10192,
      "componentType": 5126,
      "count": 896,
      "max": [
        0.6171280145645142,
        0.875
      ],
      "min": [
        0.0,
        0.0
      ],
      "type": "VEC2"
    },
    {
      "bufferView": 0,
      "byteOffset": 8040,
      "componentType": 5125,
      "count": 1344,
      "type": "SCALAR"
    },
    {
      "bufferView": 2,
      "byteOffset": 52080,
      "componentType": 5126,
      "count": 2088,
      "max": [
        1.2294316291809082,
        -0.028201639652252197,
        1.5884513854980469
      ],
      "min": [
        -1.2294316291809082,
        -1.2939480543136597,
        -1.5845508575439453
      ],
      "type": "VEC3"
    },
    {
      "bufferView": 2,
      "byteOffset": 77136,
      "componentType": 5126,
      "count": 2088,
      "max": [
        1.0,
        1.0,
        1.0
      ],
      "min": [
        -1.0,
        -1.0,
        -1.0
      ],
      "type": "VEC3"
    },
    {
      "bufferView": 1,
      "byteOffset": 17360,
      "componentType": 5126,
      "count": 2088,
      "max": [
        0.0,
        0.0
      ],
      "min": [
        0.0,
        0.0
      ],
      "type": "VEC2"
    },
    {
      "bufferView": 0,
      "byteOffset": 13416,
      "componentType": 5125,
      "count": 3240,
      "type": "SCALAR"
    },
    {
      "bufferView": 2,
      "byteOffset": 102192,
      "componentType": 5126,
      "count": 58,
      "max": [
        1.392966866493225,
        1.8061842918395996,
        1.3315517902374268
      ],
      "min": [
        -1.392966866493225,
        0.613520622253418,
        -0.7596818208694458
      ],
      "type": "VEC3"
    },
    {
      "bufferView": 2,
      "byteOffset": 102888,
      "componentType": 5126,
      "count": 58,
      "max": [
        0.9784231185913086,
        0.7875712513923645,
        0.9736863970756531
      ],
      "min": [
        -0.9784231185913086,
        0.0901770144701004,
        -0.7707923054695129
      ],
      "type": "VEC3"
    },
    {
      "bufferView": 1,
      "byteOffset": 34064,
      "componentType": 5126,
      "count": 58,
      "max": [
        0.75,
        0.75
      ],
      "min": [
        0.0,
        0.0
      ],
      "type": "VEC2"
    },
    {
      "bufferView": 0,
      "byteOffset": 26376,
      "componentType": 5125,
      "count": 96,
      "type": "SCALAR"
    },
    {
      "bufferView": 2,
      "byteOffset": 103584,
      "componentType": 5126,
      "count": 56,
      "max": [
        1.1023186445236206,
        0.7973669171333313,
        2.307255506515503
      ],
      "min": [
        -1.1023186445236206,
        -0.9620015621185303,
        -2.0475831031799316
      ],
      "type": "VEC3"
    },
    {
      "bufferView": 2,
      "byteOffset": 104256,
      "componentType": 5126,
      "count": 56,
      "max": [
        0.3207361698150635,
        0.16910633444786072,
        0.9857392311096191
      ],
      "min": [
        -0.3207361698150635,
        -0.01988109014928341,
        -0.9993796348571777
      ],
      "type": "VEC3"
    },
    {
      "bufferView": 1,
      "byteOffset": 34528,
      "componentType": 5126,
      "count": 56,
      "max": [
        0.6835598349571228,
        0.7500000596046448
      ],
      "min": [
        0.2642247676849365,
        0.2228001356124878
      ],
      "type": "VEC2"
    },
    {
      "bufferView": 0,
      "byteOffset": 26760,
      "componentType": 5125,
      "count": 84,
      "type": "SCALAR"
    },
    {
      "bufferView": 2,
      "byteOffset": 104928,
      "componentType": 5126,
      "count": 8,
      "max": [
        1.0441046953201294,
        0.5814802050590515,
        -1.6827150583267212
      ],
      "min": [
        -1.0441046953201294,
        0.07407642900943756,
        -1.941150426864624
      ],
      "type": "VEC3"
    },
    {
      "bufferView": 2,
      "byteOffset": 105024,
      "componentType": 5126,
      "count": 8,
      "max": [
        0.30333617329597473,
        0.18746083974838257,
        -0.9342620968818665
      ],
      "min": [
        -0.30333617329597473,
        0.18746083974838257,
        -0.9342620968818665
      ],
      "type": "VEC3"
    },
    {
      "bufferView": 1,
      "byteOffset": 34976,
      "componentType": 5126,
      "count": 8,
      "max": [
        0.6346036195755005,
        0.4975554049015045
      ],
      "min": [
        0.5516743659973145,
        0.46331512928009033
      ],
      "type": "VEC2"
    },
    {
      "bufferView": 0,
      "byteOffset": 27096,
      "componentType": 5125,
      "count": 12,
      "type": "SCALAR"
    },
    {
      "bufferView": 2,
      "byteOffset": 105120,
      "componentType": 5126,
      "count": 142,
      "max": [
        1.2606972455978394,
        0.3915887475013733,
        1.715463638305664
      ],
      "min": [
        -1.2606972455978394,
        -1.0001946687698364,
        -1.742599368095398
      ],
      "type": "VEC3"
    },
    {
      "bufferView": 2,
      "byteOffset": 106824,
      "componentType": 5126,
      "count": 142,
      "max": [
        1.0,
        0.04769865795969963,
        0.9988608360290527
      ],
      "min": [
        -1.0,
        -0.7905312776565552,
        -0.9999989867210388
      ],
      "type": "VEC3"
    },
    {
      "bufferView": 1,
      "byteOffset": 35040,
      "componentType": 5126,
      "count": 142,
      "max": [
        0.543749988079071,
        0.7500000596046448
      ],
      "min": [
        0.3749999701976776,
        0.4999999701976776
      ],
      "type": "VEC2"
    },
    {
      "bufferView": 0,
      "byteOffset": 27144,
      "componentType": 5125,
      "count": 240,
      "type": "SCALAR"
    },
    {
      "bufferView": 2,
      "byteOffset": 108528,
      "componentType": 5126,
      "count": 37088,
      "max": [
        1.3940469026565552,
        1.9668701887130737,
        2.308527708053589
      ],
      "min": [
        -1.3940469026565552,
        -1.5115691423416138,
        -2.1035959720611572
      ],
      "type": "VEC3"
    },
    {
      "bufferView": 2,
      "byteOffset": 553584,
      "componentType": 5126,
      "count": 37088,
      "max": [
        0.9999986886978149,
        0.9999806880950928,
        0.9999996423721313
      ],
      "min": [
        -0.9999986886978149,
        -0.9999809265136719,
        -0.9999996423721313
      ],
      "type": "VEC3"
    },
    {
      "bufferView": 1,
      "byteOffset": 36176,
      "componentType": 5126,
      "count": 37088,
      "max": [
        0.75,
        0.875
      ],
      "min": [
        0.0,
        0.0
      ],
      "type": "VEC2"
    },
    {
      "bufferView": 0,
      "byteOffset": 28104,
      "componentType": 5125,
      "count": 55632,
      "type": "SCALAR"
    }
  ],
  "asset": {
    "extras": {
      "author": "CG Geek (https://sketchfab.com/webhead)",
      "license": "CC-BY-4.0 (http://creativecommons.org/licenses/by/4.0/)",
      "source": "https://sketchfab.com/3d-models/low-poly-sports-car-8e01a3fba80c4fbcad19cc768494e91f",
      "title": "Low Poly Sports Car"
    },
    "generator": "Sketchfab-12.66.0",
    "version": "2.0"
  },
  "bufferViews": [
    {
      "buffer": 0,
      "byteLength": 250632,
      "name": "floatBufferViews",
      "target": 34963
    },
    {
      "buffer": 0,
      "byteLength": 332880,
      "byteOffset": 250632,
      "byteStride": 8,
      "name": "floatBufferViews",
      "target": 34962
    },
    {
      "buffer": 0,
      "byteLength": 998640,
      "byteOffset": 583512,
      "byteStride": 12,
      "name": "floatBufferViews",
      "target": 34962
    }
  ],
  "buffers": [
    {
      "byteLength": 1582152,
      "uri": "scene.bin"
    }
  ],
  "extensionsUsed": [
    "KHR_materials_clearcoat"
  ],
  "materials": [
    {
      "doubleSided": true,
      "extensions": {
        "KHR_materials_clearcoat": {
          "clearcoatFactor": 1.0,
          "clearcoatRoughnessFactor": 0.04
        }
      },
      "name": "Material.001",
      "pbrMetallicRoughness": {
        "baseColorFactor": [
          0.802995,
          0.016330200000000003,
          0.0,
          1.0
        ],
        "metallicFactor": 0.0,
        "roughnessFactor": 0.42802085876464846
      }
    },
    {
      "doubleSided": true,
      "name": "Material.004",
      "pbrMetallicRoughness": {
        "baseColorFactor": [
          0.0271337,
          0.0271337,
          0.0271337,
          1.0
        ],
        "metallicFactor": 0.0,
        "roughnessFactor": 0.659483
      }
    },
    {
      "doubleSided": true,
      "name": "Material.005",
      "pbrMetallicRoughness": {
        "baseColorFactor": [
          0.191323,
          0.191323,
          0.191323,
          1.0
        ],
        "metallicFactor": 0.0,
        "roughnessFactor": 0.8094791412353516
      }
    },
    {
      "alphaMode": "BLEND",
      "doubleSided": true,
      "name": "Material.006",
      "pbrMetallicRoughness": {
        "baseColorFactor": [
          0.11994023287034965,
          0.22132665471212248,
          0.331669890992415,
          0.9030208587646484
        ],
        "metallicFactor": 0.0,
        "roughnessFactor": 0.4842708587646484
      }
    },
    {
      "doubleSided": true,
      "name": "Material.007",
      "pbrMetallicRoughness": {
        "baseColorFactor": [
          0.0561921,
          0.0660703,
          0.0874269,
          1.0
        ],
        "metallicFactor": 0.0,
        "roughnessFactor": 0.5
      }
    },
    {
      "doubleSided": true,
      "emissiveFactor": [
        0.28618299999999997,
        0.5086549999999992,
        1.0
      ],
      "name": "Material.008"
    },
    {
      "doubleSided": true,
      "name": "Material.009",
      "pbrMetallicRoughness": {
        "baseColorFactor": [
          0.0978918,
          0.0858896,
          0.0884115,
          1.0
        ],
        "metallicFactor": 0.0,
        "roughnessFactor": 0.5219791412353516
      }
    },
    {
      "doubleSided": true,
      "name": "Material.010",
      "pbrMetallicRoughness": {
        "baseColorFactor": [
          0.8,
          0.8,
          0.8,
          1.0
        ],
        "metallicFactor": 0.0,
        "roughnessFactor": 0.5
      }
    }
  ],
  "meshes": [
    {
      "name": "Object_0",
      "primitives": [
        {
          "attributes": {
            "NORMAL": 1,
            "POSITION": 0,
            "TEXCOORD_0": 2
          },
          "indices": 3,
          "material": 0,
          "mode": 4
        }
      ]
    },
    {
      "name": "Object_1",
      "primitives": [
        {
          "attributes": {
            "NORMAL": 5,
            "POSITION": 4,
            "TEXCOORD_0": 6
          },
          "indices": 7,
          "material": 1,
          "mode": 4
        }
      ]
    },
    {
      "name": "Object_2",
      "primitives": [
        {
          "attributes": {
            "NORMAL": 9,
            "POSITION": 8,
            "TEXCOORD_0": 10
          },
          "indices": 11,
          "material": 2,
          "mode": 4
        }
      ]
    },
    {
      "name": "Object_3",
      "primitives": [
        {
          "attributes": {
            "NORMAL": 13,
            "POSITION": 12,
            "TEXCOORD_0": 14
          },
          "indices": 15,
          "material": 3,
          "mode": 4
        }
      ]
    },
    {
      "name": "Object_4",
      "primitives": [
        {
          "attributes": {
            "NORMAL": 17,
            "POSITION": 16,
            "TEXCOORD_0": 18
          },
          "indices": 19,
          "material": 4,
          "mode": 4
        }
      ]
    },
    {
      "name": "Object_5",
      "primitives": [
        {
          "attributes": {
            "NORMAL": 21,
            "POSITION": 20,
            "TEXCOORD_0": 22
          },
          "indices": 23,
          "material": 5,
          "mode": 4
        }
      ]
    },
    {
      "name": "Object_6",
      "primitives": [
        {
          "attributes": {
            "NORMAL": 25,
            "POSITION": 24,
            "TEXCOORD_0": 26
          },
          "indices": 27,
          "material": 6,
          "mode": 4
        }
      ]
    },
    {
      "name": "Object_7",
      "primitives": [
        {
          "attributes": {
            "NORMAL": 29,
            "POSITION": 28,
            "TEXCOORD_0": 30
          },
          "indices": 31,
          "material": 7,
          "mode": 4
        }
      ]
    }
  ],
  "nodes": [
    {
      "children": [
        1
      ],
      "matrix": [
        0.0988607108592987,
        0.0,
        0.0,
        0.0,
        0.0,
        2.1951487485360734e-17,
        -0.0988607108592987,
        0.0,
        0.0,
        0.0988607108592987,
        2.1951487485360734e-17,
        0.0,
        0.0,
        0.0,
        0.0,
        1.0
      ],
      "name": "Sketchfab_model"
    },
    {
      "children": [
        2
      ],
      "name": "root"
    },
    {
      "children": [
        3
      ],
      "matrix": [
        1.0,
        0.0,
        0.0,
        0.0,
        0.0,
        2.220446049250313e-16,
        1.0,
        0.0,
        0.0,
        -1.0,
        2.220446049250313e-16,
        0.0,
        0.0,
        0.0,
        0.0,
        1.0
      ],
      "name": "GLTF_SceneRootNode"
    },
    {
      "children": [
        4,
        5,
        6,
        7,
        8,
        9,
        10,
        11
      ],
      "matrix": [
        0.8418276906013489,
        0.0,
        0.0,
        0.0,
        0.0,
        0.4075661897659302,
        0.0,
        0.0,
        0.0,
        0.0,
        0.9849356412887573,
        0.0,
        0.0,
        0.44239917397499084,
        -0.24103127419948578,
        1.0
      ],
      "name": "Cube_2"
    },
    {
      "mesh": 0,
      "name": "Object_4"
    },
    {
      "mesh": 1,
      "name": "Object_5"
    },
    {
      "mesh": 2,
      "name": "Object_6"
    },
    {
      "mesh": 3,
      "name": "Object_7"
    },
    {
      "mesh": 4,
      "name": "Object_8"
    },
    {
      "mesh": 5,
      "name": "Object_9"
    },
    {
      "mesh": 6,
      "name": "Object_10"
    },
    {
      "mesh": 7,
      "name": "Object_11"
    }
  ],
  "scene": 0,
  "scenes": [
    {
      "name": "Sketchfab_Scene",
      "nodes": [
        0
      ]
    }
  ]
}
